<svg width="61" height="61" viewBox="0 0 61 61" fill="none" xmlns="http://www.w3.org/2000/svg">
<g clip-path="url(#clip0_629_189)">
<path d="M37.3994 24.8334L28.2341 33.4902L23.8355 28.9649C23.3479 28.4628 22.5449 28.4514 22.0433 28.9391C21.5413 29.4272 21.5299 30.2297 22.0175 30.7317L27.2931 36.1473C27.7833 36.6404 28.5753 36.6573 29.0858 36.1851L39.1667 26.6767C39.4115 26.4458 39.5546 26.127 39.564 25.7908C39.5734 25.4546 39.4488 25.1283 39.2174 24.884C38.7268 24.374 37.9178 24.3517 37.3994 24.8334Z" fill="black"/>
<path d="M30.5984 11.5107C20.1237 11.5107 11.6064 20.028 11.6064 30.5027C11.6064 40.978 20.1237 49.4952 30.5984 49.4952C41.0737 49.4952 49.5909 40.978 49.5909 30.5027C49.5909 20.028 41.0737 11.5107 30.5984 11.5107ZM30.5984 46.9528C21.522 46.9528 14.1489 39.5667 14.1489 30.5027C14.1489 21.4388 21.522 14.0532 30.5984 14.0532C39.6838 14.0532 47.0485 21.4179 47.0485 30.5027C47.0485 39.5876 39.6838 46.9528 30.5984 46.9528Z" fill="black"/>
<path d="M56.7349 23.5114L57.1545 15.9729C57.1838 15.4669 56.9087 14.9917 56.4554 14.7653L49.7432 11.3712L46.3491 4.65899C46.1182 4.20959 45.6459 3.93597 45.1414 3.95981L37.59 4.367L31.2974 0.209679C30.8733 -0.0698929 30.3236 -0.0698929 29.899 0.209679L23.6065 4.367L16.0684 3.94739C15.5619 3.9176 15.0872 4.1927 14.8608 4.64657L11.4662 11.3588L4.75448 14.7529C4.30459 14.9833 4.03147 15.4555 4.05531 15.9605L4.47442 23.499L0.317589 29.7916C0.0380173 30.2157 0.0380173 30.7654 0.317589 31.19L4.462 37.495L4.0424 45.0335C4.0131 45.5395 4.2877 46.0147 4.74157 46.2411L11.4538 49.6352L14.8479 56.3474C15.0783 56.7973 15.5505 57.0704 16.0555 57.0466L23.594 56.627L29.8866 60.7838C30.3082 61.0723 30.8634 61.0723 31.285 60.7838L37.5776 56.627L45.1161 57.0466C45.6221 57.0759 46.0968 56.8008 46.3238 56.3474L49.7178 49.6352L56.43 46.2411C56.8794 46.0102 57.1531 45.5385 57.1292 45.0335L56.7096 37.495L60.8664 31.2024C61.146 30.7783 61.146 30.2281 60.8664 29.804L56.7349 23.5114ZM54.3703 36.4527C54.2153 36.6801 54.1433 36.9537 54.1672 37.2283L54.5609 44.3596L48.2177 47.563C47.9759 47.6842 47.7797 47.8808 47.6585 48.1227L44.4546 54.4659L37.3233 54.0721C37.0502 54.0622 36.7806 54.1327 36.5477 54.2752L30.5982 58.2036L24.6493 54.2752C24.4427 54.1357 24.1994 54.0602 23.9501 54.0592H23.8865L16.7547 54.4535L13.5513 48.1098C13.4301 47.8679 13.234 47.6718 12.9917 47.5506L6.63551 44.3596L7.02979 37.2283C7.03972 36.9552 6.96871 36.6856 6.82619 36.4527L2.89829 30.5032L6.82619 24.5537C6.98162 24.3268 7.05363 24.0527 7.02979 23.7786L6.63551 16.6468L12.9793 13.4434C13.2211 13.3222 13.4172 13.1261 13.5384 12.8842L16.7418 6.54051L23.8736 6.93479C24.1462 6.94422 24.4159 6.87371 24.6493 6.73119L30.5982 2.80329L36.5477 6.73119C36.7751 6.88662 37.0492 6.95862 37.3233 6.93479L44.4546 6.54051L47.6585 12.8842C47.7797 13.1261 47.9759 13.3222 48.2177 13.4434L54.5609 16.6468L54.1672 23.7786C54.1572 24.0512 54.2282 24.3209 54.3703 24.5537L58.2987 30.5032L54.3703 36.4527Z" fill="black"/>
</g>
<defs>
<clipPath id="clip0_629_189">
<rect width="61" height="61" fill="white"/>
</clipPath>
</defs>
</svg>
