<svg width="60" height="47" viewBox="0 0 60 47" fill="none" xmlns="http://www.w3.org/2000/svg">
<path d="M58.5815 20.7322L55.4728 16.5869C54.7771 15.6483 53.8583 14.8826 52.7928 14.3532C51.7273 13.8239 50.5457 13.5462 49.3461 13.5432H36.1268V7.33975C36.1268 5.41773 35.3318 3.57444 33.9168 2.21536C32.5018 0.856292 30.5826 0.0927734 28.5815 0.0927734H7.54527C5.54586 0.098128 3.62992 0.863366 2.21612 2.22128C0.802311 3.57919 0.00557498 5.41938 0 7.33975V36.1537C0 37.3069 0.476968 38.4129 1.32598 39.2284C2.17498 40.0438 3.32648 40.5019 4.52716 40.5019H8.20926C8.43715 42.0529 9.24056 43.4726 10.4716 44.4998C11.7027 45.5271 13.2787 46.0928 14.9095 46.0928C16.5402 46.0928 18.1162 45.5271 19.3473 44.4998C20.5784 43.4726 21.3818 42.0529 21.6097 40.5019H38.3903C38.6182 42.0529 39.4216 43.4726 40.6527 44.4998C41.8838 45.5271 43.4598 46.0928 45.0905 46.0928C46.7213 46.0928 48.2973 45.5271 49.5284 44.4998C50.7594 43.4726 51.5628 42.0529 51.7907 40.5019H55.4728C56.6735 40.5019 57.825 40.0438 58.674 39.2284C59.523 38.4129 60 37.3069 60 36.1537V24.9354C59.9926 23.4269 59.4969 21.958 58.5815 20.7322ZM14.9095 43.1978C14.1633 43.1978 13.4339 42.9853 12.8135 42.5871C12.1931 42.189 11.7095 41.6231 11.424 40.9609C11.1385 40.2988 11.0637 39.5703 11.2093 38.8674C11.3549 38.1645 11.7142 37.5189 12.2418 37.0121C12.7694 36.5054 13.4416 36.1602 14.1735 36.0204C14.9053 35.8806 15.6638 35.9524 16.3532 36.2266C17.0425 36.5009 17.6317 36.9653 18.0463 37.5612C18.4608 38.1571 18.6821 38.8576 18.6821 39.5743C18.6821 40.5353 18.2846 41.457 17.5771 42.1365C16.8696 42.816 15.91 43.1978 14.9095 43.1978ZM33.1087 37.6031H21.3984C20.9589 36.2816 20.0935 35.1285 18.9272 34.3103C17.7608 33.4921 16.3538 33.0511 14.9095 33.0511C13.4651 33.0511 12.0581 33.4921 10.8918 34.3103C9.72538 35.1285 8.85997 36.2816 8.42052 37.6031H4.52716C4.12694 37.6031 3.7431 37.4504 3.4601 37.1786C3.1771 36.9068 3.01811 36.5381 3.01811 36.1537V7.33975C3.01811 6.18654 3.49508 5.08056 4.34408 4.26512C5.19309 3.44967 6.34459 2.99156 7.54527 2.99156H28.5815C29.7822 2.99156 30.9337 3.44967 31.7827 4.26512C32.6317 5.08056 33.1087 6.18654 33.1087 7.33975V37.6031ZM45.0905 43.1978C44.3444 43.1978 43.615 42.9853 42.9946 42.5871C42.3742 42.189 41.8906 41.6231 41.6051 40.9609C41.3195 40.2988 41.2448 39.5703 41.3904 38.8674C41.536 38.1645 41.8953 37.5189 42.4229 37.0121C42.9505 36.5054 43.6227 36.1602 44.3545 36.0204C45.0864 35.8806 45.8449 35.9524 46.5343 36.2266C47.2236 36.5009 47.8128 36.9653 48.2274 37.5612C48.6419 38.1571 48.8632 38.8576 48.8632 39.5743C48.8632 40.5353 48.4657 41.457 47.7582 42.1365C47.0507 42.816 46.0911 43.1978 45.0905 43.1978ZM56.9819 36.1537C56.9819 36.5381 56.8229 36.9068 56.5399 37.1786C56.2569 37.4504 55.8731 37.6031 55.4728 37.6031H51.5795C51.14 36.2816 50.2746 35.1285 49.1082 34.3103C47.9419 33.4921 46.5349 33.0511 45.0905 33.0511C43.6462 33.0511 42.2392 33.4921 41.0728 34.3103C39.9065 35.1285 39.0411 36.2816 38.6016 37.6031H36.1268V16.4419H49.3461C50.0661 16.4466 50.7749 16.6144 51.4147 16.9317C52.0545 17.2491 52.6073 17.707 53.0282 18.2682L56.1368 22.4135C56.68 23.1515 56.9749 24.0316 56.9819 24.9354V36.1537Z" fill="black"/>
<path d="M48.1966 23.6888H42.1604C41.7602 23.6888 41.3764 23.5361 41.0934 23.2643C40.8104 22.9925 40.6514 22.6238 40.6514 22.2394C40.6514 21.855 40.8104 21.4864 41.0934 21.2146C41.3764 20.9427 41.7602 20.79 42.1604 20.79H48.1966C48.5969 20.79 48.9807 20.9427 49.2637 21.2146C49.5467 21.4864 49.7057 21.855 49.7057 22.2394C49.7057 22.6238 49.5467 22.9925 49.2637 23.2643C48.9807 23.5361 48.5969 23.6888 48.1966 23.6888Z" fill="black"/>
</svg>
