<svg width="62" height="61" viewBox="0 0 62 61" fill="none" xmlns="http://www.w3.org/2000/svg">
<g clip-path="url(#clip0_606_151)">
<path d="M27.2962 60.771C21.8558 60.0657 16.2552 57.7325 12.1759 54.467C2.99156 47.1394 -1.17741 35.5628 1.2054 24.0662C2.22715 19.1023 4.88827 13.8792 8.29474 10.1162C10.8041 7.29213 13.8303 4.97381 17.2103 3.28614C21.6976 1.01198 25.9866 -0.00976562 31.0496 -0.00976562C34.683 -0.00976562 37.6033 0.466797 40.9488 1.60864C45.3438 3.11619 49.3367 5.60724 52.623 8.89191C55.9094 12.1766 58.4024 16.1682 59.9122 20.5625C61.7002 25.8047 62.0262 31.3843 60.8844 36.9143C59.9713 41.2834 57.6171 46.1977 54.7196 49.751C53.5281 51.2207 50.787 53.8418 49.3477 54.9036C45.0421 58.1013 39.9783 60.1234 34.6544 60.771C33.0855 60.9693 28.8155 60.9597 27.2981 60.771H27.2962ZM35.6075 58.2205C43.0386 56.975 49.6707 52.8286 54.0447 46.6934C59.1973 39.4553 60.5775 29.7449 57.6685 21.2773C56.9842 19.291 55.2857 15.976 54.0447 14.228C52.6646 12.2722 49.2486 8.84667 47.2833 7.46655C45.377 6.11692 42.1307 4.47755 39.9156 3.75317C35.9172 2.42478 31.6715 2.01176 27.492 2.54463C23.3126 3.07749 19.3063 4.54262 15.7691 6.83177C12.4412 9.01789 9.59637 11.8627 7.41024 15.1907C5.12168 18.7259 3.65683 22.7303 3.12396 26.9078C2.59109 31.0853 3.00382 35.3292 4.33165 39.3257C5.06555 41.5389 6.70493 44.7966 8.04502 46.7029C9.43468 48.6587 12.8507 52.0842 14.8065 53.4644C16.5641 54.6958 19.8695 56.3924 21.8558 57.0881C26.2769 58.5902 31.0002 58.9791 35.6075 58.2205ZM25.0431 47.9934C23.6178 47.7785 22.2505 47.2787 21.0228 46.5237C19.921 45.8184 11.6002 37.6673 11.1941 36.9029C10.7271 36.0298 11.5411 34.44 12.7039 33.9539L13.2491 33.7251L11.5716 32.0171C10.649 31.0735 9.77399 30.0709 9.63484 29.7925C9.30696 29.1578 9.29743 27.7967 9.60434 27.1905C9.73396 26.9427 10.0409 26.5653 10.2791 26.3556C10.6871 26.0182 10.7252 25.8981 10.6871 25.0441C10.6375 24.2892 10.7061 23.9918 11.034 23.4257C11.5106 22.6117 12.4942 22.0646 13.4569 22.0551C13.9925 22.0551 14.1317 21.9865 14.3604 21.588C14.9571 20.5453 16.6632 20.1679 17.9651 20.8046L18.6705 21.142L19.0174 20.8046C19.494 20.368 20.4471 19.9811 21.0723 19.9811C22.3228 19.9811 24.0899 21.4203 24.0899 22.4325C24.0899 23.643 22.9881 23.8527 21.8958 22.85C21.1715 22.1752 20.8036 22.1046 20.5062 22.5812C20.3575 22.81 20.714 23.237 22.849 25.391C24.984 27.5355 25.3709 27.993 25.3709 28.3991C25.3541 28.7103 25.2216 29.004 24.9994 29.2226C24.7772 29.4413 24.4815 29.5691 24.17 29.581C23.783 29.581 23.1482 29.0243 20.2183 26.1059C17.2293 23.1264 16.6841 22.6498 16.4459 22.8004C15.7996 23.2084 16.0189 23.5057 19.513 27.0094C21.4097 28.9157 22.9691 30.6027 22.9691 30.7628C22.9691 31.0907 22.6717 31.6969 22.4239 31.8551C22.2206 31.9444 21.9994 31.9855 21.7776 31.9752C21.3697 31.9847 20.7445 31.4186 17.42 28.1036C14.084 24.7867 13.4874 24.2511 13.2491 24.3998C12.5933 24.8172 12.8126 25.1051 16.6155 28.9271C18.6914 31.003 20.428 32.8597 20.4776 33.0579C20.5862 33.4163 20.348 34.0416 20.0315 34.2589C19.8215 34.3482 19.5942 34.3892 19.3662 34.379C18.9583 34.379 18.4436 33.9329 15.6929 31.1822C13.0413 28.5306 12.4256 27.9854 12.0882 28.0159C11.1351 28.1246 11.4725 28.5516 16.3963 33.4869C20.6663 37.7664 21.2115 38.3726 21.2115 38.8186C21.2158 38.9824 21.179 39.1446 21.1044 39.2905C21.0298 39.4364 20.9198 39.5612 20.7845 39.6536C20.0201 40.2598 19.7227 40.1206 17.7955 38.2544C16.8119 37.3108 15.7996 36.3977 15.5309 36.228C15.0448 35.9307 13.8133 35.801 13.5846 36.0393C13.5045 36.108 15.3212 38.0256 17.6163 40.2979C21.4383 44.0799 21.8749 44.4688 22.9976 45.0044C24.032 45.5195 25.1711 45.7891 26.3266 45.7924C27.4821 45.7957 28.6227 45.5326 29.66 45.0235C32.8663 43.4947 34.6448 39.7813 33.7699 36.4149C33.3333 34.7374 32.7862 33.9329 30.5826 31.6588C28.0416 29.0567 27.4545 28.3419 26.8292 27.0914C26.1334 25.6922 25.8361 24.3311 25.8361 22.6327C25.8361 20.795 26.0248 19.962 26.8387 18.2445C27.6127 16.607 29.2311 14.8895 30.8304 14.005C33.9681 12.257 38.099 12.4056 41.0956 14.3634C41.6922 14.7503 43.8463 16.7767 46.5265 19.4664C50.5086 23.4581 50.9642 23.9747 50.9642 24.4303C50.9642 25.513 50.0797 26.714 49.098 26.9618C48.7301 27.0609 48.8006 27.16 50.4686 28.8585C51.4408 29.8421 52.3444 30.9039 52.4835 31.2318C52.9506 32.3545 52.7409 33.4449 51.8869 34.339C51.4503 34.7965 51.3912 34.9547 51.3798 35.8678C51.3703 36.6722 51.2807 37.0096 50.9623 37.4671C50.7109 37.8393 50.3742 38.1461 49.9803 38.3619C49.5864 38.5778 49.1467 38.6964 48.6977 38.7081C48.082 38.7081 47.9638 38.7672 47.655 39.2342C46.9592 40.3074 45.1521 40.683 43.9816 39.9891L43.3964 39.6421L42.979 40.0501C42.0563 40.9346 40.5656 41.0528 39.4352 40.3284C38.5221 39.7527 37.8473 38.9483 37.8473 38.4412C37.8473 37.9951 38.4936 37.2593 38.8901 37.2593C39.2675 37.2593 39.7746 37.5567 40.3502 38.0943C40.9259 38.6395 41.4235 38.6395 41.5016 38.0847C41.5416 37.7874 41.0651 37.2212 39.1379 35.2845C37.1115 33.239 36.7246 32.772 36.7246 32.3755C36.72 32.1542 36.7609 31.9342 36.8447 31.7293C37.0639 31.4014 37.6796 31.1727 38.0551 31.2718C38.2534 31.3214 39.9309 32.8711 41.7685 34.7069C43.6157 36.554 45.2341 38.0619 45.3827 38.0619C45.7907 38.0619 46.0576 37.6539 45.8688 37.307C45.7792 37.1488 44.2199 35.5494 42.4128 33.7423C39.5839 30.923 39.1264 30.3968 39.1264 29.9794C39.1172 29.7546 39.1582 29.5305 39.2465 29.3236C39.4162 29.0758 40.0109 28.7784 40.3483 28.7784C40.497 28.7784 42.3632 30.515 44.4982 32.6405C48.4099 36.533 48.6977 36.7504 49.1056 36.106C49.2543 35.8678 48.7187 35.2616 45.4018 31.9352C41.9763 28.5001 41.5207 27.9835 41.5207 27.5375C41.5207 27.2305 41.6598 26.9122 41.8791 26.714C42.6034 26.0296 42.8227 26.1688 46.3473 29.6725C49.6832 32.9989 49.9806 33.2162 50.3886 32.5814C50.5372 32.3431 49.8624 31.6092 45.7221 27.4574C41.2138 22.93 40.8878 22.5621 40.8878 22.036C40.8878 21.2411 41.3453 20.8637 42.2279 20.9247C42.3861 20.9342 43.3392 21.7386 44.3229 22.7013C45.316 23.664 46.3873 24.5675 46.7057 24.7067C47.3309 24.964 48.0553 25.004 48.3641 24.8058C48.6615 24.6171 40.4208 16.506 39.3495 15.9398C38.4309 15.4441 37.4206 15.1415 36.3807 15.0508C35.3409 14.9601 34.2934 15.0832 33.3029 15.4125C32.3124 15.7418 31.3997 16.2703 30.6211 16.9655C29.8425 17.6607 29.2144 18.5079 28.7755 19.455C28.2589 20.5568 28.1903 20.8846 28.1197 22.3048C28.0606 23.6449 28.1102 24.0624 28.3981 24.9164C28.9146 26.4356 29.3607 27.0609 31.6749 29.4246C34.1778 31.9866 34.6544 32.5719 35.2892 33.9425C37.0772 37.755 36.3223 42.1641 33.3734 45.1016C31.1297 47.3548 28.0721 48.4071 25.0431 47.9915V47.9934Z" fill="black"/>
</g>
<defs>
<clipPath id="clip0_606_151">
<rect width="61" height="61" fill="white" transform="translate(0.5)"/>
</clipPath>
</defs>
</svg>
