<svg width="30" height="32" viewBox="0 0 30 32" fill="none" xmlns="http://www.w3.org/2000/svg">
<path d="M28.75 5.125H21.875V3.25C21.8709 2.42246 21.5403 1.62999 20.9552 1.04483C20.37 0.459666 19.5775 0.129107 18.75 0.125H11.25C10.4225 0.129107 9.62999 0.459666 9.04483 1.04483C8.45967 1.62999 8.12911 2.42246 8.125 3.25V5.125H1.25C1.08424 5.125 0.925269 5.19085 0.808058 5.30806C0.690848 5.42527 0.625 5.58424 0.625 5.75C0.625 5.91576 0.690848 6.07473 0.808058 6.19194C0.925269 6.30915 1.08424 6.375 1.25 6.375H3.125V29.5C3.125 29.9973 3.32254 30.4742 3.67417 30.8258C4.02581 31.1775 4.50272 31.375 5 31.375H25C25.4973 31.375 25.9742 31.1775 26.3258 30.8258C26.6775 30.4742 26.875 29.9973 26.875 29.5V6.375H28.75C28.9158 6.375 29.0747 6.30915 29.1919 6.19194C29.3092 6.07473 29.375 5.91576 29.375 5.75C29.375 5.58424 29.3092 5.42527 29.1919 5.30806C29.0747 5.19085 28.9158 5.125 28.75 5.125ZM9.375 3.25C9.375 2.75272 9.57254 2.27581 9.92417 1.92417C10.2758 1.57254 10.7527 1.375 11.25 1.375H18.75C19.2473 1.375 19.7242 1.57254 20.0758 1.92417C20.4275 2.27581 20.625 2.75272 20.625 3.25V5.125H9.375V3.25ZM25.625 29.5C25.625 29.6658 25.5592 29.8247 25.4419 29.9419C25.3247 30.0592 25.1658 30.125 25 30.125H5C4.83424 30.125 4.67527 30.0592 4.55806 29.9419C4.44085 29.8247 4.375 29.6658 4.375 29.5V6.375H25.625V29.5ZM11.875 13.25V23.25C11.875 23.4158 11.8092 23.5747 11.6919 23.6919C11.5747 23.8092 11.4158 23.875 11.25 23.875C11.0842 23.875 10.9253 23.8092 10.8081 23.6919C10.6908 23.5747 10.625 23.4158 10.625 23.25V13.25C10.625 13.0842 10.6908 12.9253 10.8081 12.8081C10.9253 12.6908 11.0842 12.625 11.25 12.625C11.4158 12.625 11.5747 12.6908 11.6919 12.8081C11.8092 12.9253 11.875 13.0842 11.875 13.25ZM19.375 13.25V23.25C19.375 23.4158 19.3092 23.5747 19.1919 23.6919C19.0747 23.8092 18.9158 23.875 18.75 23.875C18.5842 23.875 18.4253 23.8092 18.3081 23.6919C18.1908 23.5747 18.125 23.4158 18.125 23.25V13.25C18.125 13.0842 18.1908 12.9253 18.3081 12.8081C18.4253 12.6908 18.5842 12.625 18.75 12.625C18.9158 12.625 19.0747 12.6908 19.1919 12.8081C19.3092 12.9253 19.375 13.0842 19.375 13.25Z" fill="black"/>
</svg>
