<svg width="24" height="24" viewBox="0 0 24 24" fill="none" xmlns="http://www.w3.org/2000/svg">
<path d="M23.375 12C23.375 9.75024 22.7079 7.551 21.458 5.68039C20.2081 3.80978 18.4315 2.35182 16.353 1.49088C14.2745 0.629929 11.9874 0.404666 9.78085 0.843573C7.57432 1.28248 5.54749 2.36584 3.95667 3.95667C2.36584 5.54749 1.28248 7.57432 0.843573 9.78085C0.404666 11.9874 0.629929 14.2745 1.49088 16.353C2.35182 18.4315 3.80978 20.2081 5.68039 21.458C7.551 22.7079 9.75024 23.375 12 23.375C15.016 23.3721 17.9075 22.1727 20.0401 20.0401C22.1727 17.9075 23.3721 15.016 23.375 12ZM12.875 21.5813V14.625H15.5C15.7321 14.625 15.9546 14.5328 16.1187 14.3687C16.2828 14.2046 16.375 13.9821 16.375 13.75C16.375 13.5179 16.2828 13.2954 16.1187 13.1313C15.9546 12.9672 15.7321 12.875 15.5 12.875H12.875V10.25C12.875 9.78588 13.0594 9.34076 13.3876 9.01257C13.7158 8.68438 14.1609 8.5 14.625 8.5H16.375C16.6071 8.5 16.8296 8.40782 16.9937 8.24372C17.1578 8.07963 17.25 7.85707 17.25 7.625C17.25 7.39294 17.1578 7.17038 16.9937 7.00629C16.8296 6.84219 16.6071 6.75 16.375 6.75H14.625C13.6976 6.75289 12.8091 7.12256 12.1533 7.77832C11.4976 8.43407 11.1279 9.32263 11.125 10.25V12.875H8.5C8.26794 12.875 8.04538 12.9672 7.88129 13.1313C7.71719 13.2954 7.625 13.5179 7.625 13.75C7.625 13.9821 7.71719 14.2046 7.88129 14.3687C8.04538 14.5328 8.26794 14.625 8.5 14.625H11.125V21.5813C8.65837 21.3561 6.3735 20.1887 4.74564 18.3218C3.11778 16.455 2.27227 14.0325 2.38497 11.5582C2.49768 9.08384 3.55992 6.7482 5.35075 5.03709C7.14157 3.32598 9.52312 2.37111 12 2.37111C14.4769 2.37111 16.8584 3.32598 18.6493 5.03709C20.4401 6.7482 21.5023 9.08384 21.615 11.5582C21.7277 14.0325 20.8822 16.455 19.2544 18.3218C17.6265 20.1887 15.3416 21.3561 12.875 21.5813Z" fill="black"/>
</svg>
