<svg width="24" height="24" viewBox="0 0 24 24" fill="none" xmlns="http://www.w3.org/2000/svg">
<path d="M7.10004 0.333008H16.9C20.6334 0.333008 23.6667 3.36634 23.6667 7.09968V16.8997C23.6667 18.6943 22.9538 20.4154 21.6848 21.6844C20.4158 22.9534 18.6947 23.6663 16.9 23.6663H7.10004C3.36671 23.6663 0.333374 20.633 0.333374 16.8997V7.09968C0.333374 5.30504 1.04629 3.58391 2.31529 2.31492C3.58428 1.04592 5.30541 0.333008 7.10004 0.333008ZM6.86671 2.66634C5.7528 2.66634 4.68451 3.10884 3.89686 3.89649C3.10921 4.68415 2.66671 5.75243 2.66671 6.86634V17.133C2.66671 19.4547 4.54504 21.333 6.86671 21.333H17.1334C18.2473 21.333 19.3156 20.8905 20.1032 20.1029C20.8909 19.3152 21.3334 18.2469 21.3334 17.133V6.86634C21.3334 4.54467 19.455 2.66634 17.1334 2.66634H6.86671ZM18.125 4.41634C18.5118 4.41634 18.8827 4.56999 19.1562 4.84348C19.4297 5.11697 19.5834 5.4879 19.5834 5.87467C19.5834 6.26145 19.4297 6.63238 19.1562 6.90587C18.8827 7.17936 18.5118 7.33301 18.125 7.33301C17.7383 7.33301 17.3673 7.17936 17.0938 6.90587C16.8204 6.63238 16.6667 6.26145 16.6667 5.87467C16.6667 5.4879 16.8204 5.11697 17.0938 4.84348C17.3673 4.56999 17.7383 4.41634 18.125 4.41634ZM12 6.16634C13.5471 6.16634 15.0309 6.78092 16.1248 7.87489C17.2188 8.96885 17.8334 10.4526 17.8334 11.9997C17.8334 13.5468 17.2188 15.0305 16.1248 16.1245C15.0309 17.2184 13.5471 17.833 12 17.833C10.4529 17.833 8.96921 17.2184 7.87525 16.1245C6.78129 15.0305 6.16671 13.5468 6.16671 11.9997C6.16671 10.4526 6.78129 8.96885 7.87525 7.87489C8.96921 6.78092 10.4529 6.16634 12 6.16634ZM12 8.49967C11.0718 8.49967 10.1815 8.86842 9.52517 9.5248C8.86879 10.1812 8.50004 11.0714 8.50004 11.9997C8.50004 12.9279 8.86879 13.8182 9.52517 14.4745C10.1815 15.1309 11.0718 15.4997 12 15.4997C12.9283 15.4997 13.8185 15.1309 14.4749 14.4745C15.1313 13.8182 15.5 12.9279 15.5 11.9997C15.5 11.0714 15.1313 10.1812 14.4749 9.5248C13.8185 8.86842 12.9283 8.49967 12 8.49967Z" fill="black"/>
</svg>
