<svg width="22" height="22" viewBox="0 0 22 22" fill="none" xmlns="http://www.w3.org/2000/svg">
<path d="M20.7334 15.0833C19.3334 15.0833 17.8167 14.85 16.5334 14.3833H16.1834C15.8334 14.3833 15.6 14.5 15.3667 14.7333L12.8 17.3C9.53336 15.55 6.73336 12.8667 5.10002 9.6L7.66669 7.03333C8.01669 6.68333 8.13336 6.21667 7.90002 5.86667C7.55002 4.58333 7.31669 3.06667 7.31669 1.66667C7.31669 1.08333 6.73336 0.5 6.15002 0.5H2.06669C1.48336 0.5 0.900024 1.08333 0.900024 1.66667C0.900024 12.6333 9.76669 21.5 20.7334 21.5C21.3167 21.5 21.9 20.9167 21.9 20.3333V16.25C21.9 15.6667 21.3167 15.0833 20.7334 15.0833ZM3.23336 2.83333H4.98336C5.10002 3.88333 5.33336 4.93333 5.56669 5.86667L4.16669 7.26667C3.70002 5.86667 3.35002 4.35 3.23336 2.83333ZM19.5667 19.1667C18.05 19.05 16.5334 18.7 15.1334 18.2333L16.5334 16.8333C17.4667 17.0667 18.5167 17.3 19.5667 17.3V19.1667ZM14.9 11H17.2334C17.2334 9.4529 16.6188 7.96917 15.5248 6.87521C14.4309 5.78125 12.9471 5.16667 11.4 5.16667V7.5C12.3283 7.5 13.2185 7.86875 13.8749 8.52513C14.5313 9.1815 14.9 10.0717 14.9 11ZM19.5667 11H21.9C21.9 5.16667 17.1984 0.5 11.4 0.5V2.83333C15.9034 2.83333 19.5667 6.485 19.5667 11Z" fill="black"/>
</svg>
