<svg width="31" height="30" viewBox="0 0 31 30" fill="none" xmlns="http://www.w3.org/2000/svg">
<path d="M15.5 0C17.4891 0 19.3968 0.790176 20.8033 2.1967C22.2098 3.60322 23 5.51088 23 7.5C23 9.48912 22.2098 11.3968 20.8033 12.8033C19.3968 14.2098 17.4891 15 15.5 15C13.5109 15 11.6032 14.2098 10.1967 12.8033C8.79018 11.3968 8 9.48912 8 7.5C8 5.51088 8.79018 3.60322 10.1967 2.1967C11.6032 0.790176 13.5109 0 15.5 0ZM15.5 3.75C14.5054 3.75 13.5516 4.14509 12.8484 4.84835C12.1451 5.55161 11.75 6.50544 11.75 7.5C11.75 8.49456 12.1451 9.44839 12.8484 10.1517C13.5516 10.8549 14.5054 11.25 15.5 11.25C16.4946 11.25 17.4484 10.8549 18.1517 10.1517C18.8549 9.44839 19.25 8.49456 19.25 7.5C19.25 6.50544 18.8549 5.55161 18.1517 4.84835C17.4484 4.14509 16.4946 3.75 15.5 3.75ZM15.5 16.875C20.5063 16.875 30.5 19.3688 30.5 24.375V30H0.5V24.375C0.5 19.3688 10.4938 16.875 15.5 16.875ZM15.5 20.4375C9.93125 20.4375 4.0625 23.175 4.0625 24.375V26.4375H26.9375V24.375C26.9375 23.175 21.0688 20.4375 15.5 20.4375Z" fill="black"/>
</svg>
