<svg width="30" height="30" viewBox="0 0 30 30" fill="none" xmlns="http://www.w3.org/2000/svg">
<path d="M23.7916 23.7503C24.5652 23.7503 25.3071 24.0576 25.854 24.6046C26.401 25.1516 26.7083 25.8934 26.7083 26.667C26.7083 27.4405 26.401 28.1824 25.854 28.7294C25.3071 29.2764 24.5652 29.5837 23.7916 29.5837C22.1729 29.5837 20.875 28.2712 20.875 26.667C20.875 25.0482 22.1729 23.7503 23.7916 23.7503ZM0.458313 0.416992H5.22706L6.5979 3.33366H28.1666C28.5534 3.33366 28.9244 3.4873 29.1978 3.76079C29.4713 4.03429 29.625 4.40522 29.625 4.79199C29.625 5.03991 29.5521 5.28783 29.45 5.52116L24.2291 14.9566C23.7333 15.8462 22.7708 16.4587 21.6771 16.4587H10.8125L9.49998 18.8357L9.45623 19.0107C9.45623 19.1074 9.49464 19.2002 9.56301 19.2685C9.63139 19.3369 9.72412 19.3753 9.82081 19.3753H26.7083V22.292H9.20831C7.58956 22.292 6.29165 20.9795 6.29165 19.3753C6.29165 18.8649 6.4229 18.3837 6.64165 17.9753L8.62498 14.4024L3.37498 3.33366H0.458313V0.416992ZM9.20831 23.7503C9.98186 23.7503 10.7237 24.0576 11.2707 24.6046C11.8177 25.1516 12.125 25.8934 12.125 26.667C12.125 27.4405 11.8177 28.1824 11.2707 28.7294C10.7237 29.2764 9.98186 29.5837 9.20831 29.5837C7.58956 29.5837 6.29165 28.2712 6.29165 26.667C6.29165 25.0482 7.58956 23.7503 9.20831 23.7503ZM22.3333 13.542L26.3875 6.25033H7.95415L11.3958 13.542H22.3333Z" fill="black"/>
</svg>
